<svg xmlns="http://www.w3.org/2000/svg" viewBox="0 0 162 41" fill="none">
  <path fill="#000" className="main" d="m35.836 12.416-.036 4.356v1.8h.036v.468c0 .648.072 1.116.252 1.404.144.324.612.468 1.368.468h1.188c.756 0 1.332-.18 1.656-.54.324-.324.504-1.008.504-2.052v-6.048c0-.684-.072-1.224-.252-1.656-.18-.432-.576-.648-1.26-.648h-1.548c-1.26 0-1.908.828-1.908 2.448ZM62.312 28.4V12.884c0-2.592-.324-2.988-2.952-2.988H46.508c-1.332 0-1.872.072-1.872 1.8v1.584c0 1.26.468 1.44 1.152 1.44.324 0 1.08-.036 1.836-.036h.216l-1.08 2.412v5.832c0 1.08.324 2.34.612 3.384l-1.332-.252c-.324-.072-.648-.072-.9-.072-.9 0-1.26.432-1.26 1.908V29.3c0 1.296.828 1.404 1.8 1.404h4.068c1.908 0 2.088-.684 2.088-2.052v-1.224l-.18-12.744h3.636l2.844-.36-.684 2.412V28.4c0 1.332.216 2.304 1.512 2.304h1.98c1.368 0 1.368-1.368 1.368-2.304ZM71.342 5.396c-.216.84-.492 1.752-.828 2.736a87.88 87.88 0 0 1-1.08 2.916c-.384.96-.78 1.884-1.188 2.772h-3.852c.168-.72.336-1.464.504-2.232.168-.768.324-1.536.468-2.304.168-.792.312-1.548.432-2.268.144-.72.264-1.392.36-2.016h4.932l.252.396ZM86.634 28.4V12.884c0-2.592-.324-2.988-2.952-2.988h-8.748c-1.332 0-1.872.072-1.872 1.8v1.584c0 1.26.468 1.44 1.152 1.44.324 0 .72-.036 1.116-.036h4.284l2.844-.36-.684 2.412V28.4c0 1.332.216 2.304 1.548 2.304.252 0 .936.036 1.548.036.396 0 .72 0 .864-.072.792-.396.9-1.332.9-2.268ZM105.288 12.884c0-2.592-.36-2.988-2.988-2.988H91.86c-1.332 0-1.836.072-1.836 1.8v1.584c0 1.26.468 1.44 1.152 1.44.324 0 .72-.036 1.116-.036h5.58l.72-.324-.612 2.376V28.4c0 1.332.18 2.304 1.512 2.304h1.944c1.368 0 1.368-1.368 1.368-2.304V15.116l2.484-.936v-1.296ZM111.625 14.684l-2.52 1.368.072 8.388c.036 4.428 1.116 6.264 4.356 6.264h4.824c4.968 0 5.58-4.248 6.048-9.504l.72-8.316c.036-.288.036-.576.036-.792 0-1.728-.72-2.196-3.024-2.196h-12.276c-1.368 0-1.872.072-1.872 1.8v1.584c0 1.08.576 1.404 1.332 1.404h2.304Zm2.268 0h4.212l2.556-.36-.396 2.412-.432 4.932c-.252 3.024-.432 4.464-1.98 4.464h-2.52c-1.296 0-1.44-.216-1.44-1.368v-10.08Z"/>
  <path fill="#3B82F6" className="secondary item1" d="M129 10.704a1 1 0 0 1 1-1h15a1 1 0 0 1 1 1v3a1 1 0 0 1-1 1h-15a1 1 0 0 1-1-1v-3Z"/>
  <path fill="#F6AB3B" className="secondary item2" d="M129 18.704a1 1 0 0 1 1-1h20a1 1 0 0 1 1 1v3a1 1 0 0 1-1 1h-20a1 1 0 0 1-1-1v-3Z"/>
  <path fill="#F63B7E" className="secondary item3" d="M129 26.704a1 1 0 0 1 1-1h9a1 1 0 0 1 1 1v3a1 1 0 0 1-1 1h-9a1 1 0 0 1-1-1v-3Z"/>
  <path fill="#3B82F6" className="secondary item4" d="M14.516 27.752c-.2.112-.348.252-.444.42-.096.16-.16.384-.192.672-.016.136-.036.384-.06.744l-.036.804-.012.336c-.416.024-.84.036-1.272.036h-.42c.008-.688.032-1.276.072-1.764.04-.512.152-.936.336-1.272.192-.344.484-.624.876-.84-.52-.72-.96-1.408-1.32-2.064.44-.272.948-.544 1.524-.816.688 1.144 1.28 2.06 1.776 2.748.256-.064.44-.152.552-.264.12-.112.196-.284.228-.516.04-.256.092-.832.156-1.728.36-.024.712-.036 1.056-.036l.684.012-.108 1.44c-.04.536-.18.96-.42 1.272-.24.312-.6.556-1.08.732l1.62 2.556c-.608.32-1.124.556-1.548.708l-1.968-3.18Zm5.819 3.024c-.184 0-.436-.008-.756-.024l-.3-5.652v-.732l1.572-.108.288 4.932c.472 0 .892-.1 1.26-.3.368-.208.656-.496.864-.864a2.54 2.54 0 0 0 .312-1.272c0-.72-.284-1.08-.852-1.08-.184 0-.424.052-.72.156l-.384-1.284c.2-.12.432-.216.696-.288.272-.08.544-.12.816-.12.64 0 1.144.212 1.512.636.368.416.552 1 .552 1.752 0 .784-.196 1.516-.588 2.196-.384.672-.9 1.172-1.548 1.5a4.775 4.775 0 0 1-1.224.408 7.4 7.4 0 0 1-1.5.144Zm5.627-1.572h3.252v-2.688c0-.232-.064-.412-.192-.54-.12-.136-.288-.204-.504-.204H26.25v-1.5h2.592c.632 0 1.124.18 1.476.54.36.36.54.86.54 1.5v2.892h.96l-.168 1.5h-5.688v-1.5Z"/>
</svg>
