<svg width="22" height="23" viewBox="0 0 22 23" fill="none" xmlns="http://www.w3.org/2000/svg">
<path d="M0 1.7516C0 1.17301 0.447715 0.703979 1 0.703979H16C16.5523 0.703979 17 1.17301 17 1.7516V4.89446C17 5.47304 16.5523 5.94208 16 5.94208H1C0.447715 5.94208 0 5.47304 0 4.89446V1.7516Z" fill="#3B82F6"/>
<path d="M0 10.1325C0 9.55397 0.447715 9.08493 1 9.08493H21C21.5523 9.08493 22 9.55397 22 10.1325V13.2754C22 13.854 21.5523 14.323 21 14.323H1C0.447716 14.323 0 13.854 0 13.2754V10.1325Z" fill="#F6AB3B"/>
<path d="M0 18.5135C0 17.9349 0.447715 17.4659 1 17.4659H10C10.5523 17.4659 11 17.9349 11 18.5135V21.6564C11 22.2349 10.5523 22.704 10 22.704H1C0.447715 22.704 0 22.2349 0 21.6564V18.5135Z" fill="#F63B7E"/>
</svg>
