<svg width="116" height="27" viewBox="0 0 116 27" fill="none" xmlns="http://www.w3.org/2000/svg">
<path d="M0.836049 7.71202L0.800049 12.068V13.868H0.836049V14.336C0.836049 14.984 0.908049 15.452 1.08805 15.74C1.23205 16.064 1.70005 16.208 2.45605 16.208H3.64405C4.40005 16.208 4.97605 16.028 5.30005 15.668C5.62405 15.344 5.80405 14.66 5.80405 13.616V7.56802C5.80405 6.88402 5.73205 6.34402 5.55205 5.91202C5.37205 5.48002 4.97605 5.26402 4.29205 5.26402H2.74405C1.48405 5.26402 0.836049 6.09202 0.836049 7.71202Z" fill="black"/>
<path d="M27.3121 23.696V8.18002C27.3121 5.58802 26.9881 5.19202 24.3601 5.19202H11.5081C10.1761 5.19202 9.63608 5.26402 9.63608 6.99202V8.57602C9.63608 9.83602 10.1041 10.016 10.7881 10.016C11.1121 10.016 11.8681 9.98002 12.6241 9.98002H12.8401L11.7601 12.392V18.224C11.7601 19.304 12.0841 20.564 12.3721 21.608L11.0401 21.356C10.7161 21.284 10.3921 21.284 10.1401 21.284C9.24008 21.284 8.88008 21.716 8.88008 23.192V24.596C8.88008 25.892 9.70808 26 10.6801 26H14.7481C16.6561 26 16.8361 25.316 16.8361 23.948V22.724L16.6561 9.98002H20.2921L23.1361 9.62002L22.4521 12.032V23.696C22.4521 25.028 22.6681 26 23.9641 26H25.9441C27.3121 26 27.3121 24.632 27.3121 23.696Z" fill="black"/>
<path d="M36.3416 0.692022C36.1256 1.53202 35.8496 2.44402 35.5136 3.42802C35.1776 4.38802 34.8176 5.36002 34.4336 6.34402C34.0496 7.30402 33.6536 8.22802 33.2456 9.11602H29.3936C29.5616 8.39602 29.7296 7.65202 29.8976 6.88402C30.0656 6.11602 30.2216 5.34802 30.3656 4.58002C30.5336 3.78802 30.6776 3.03202 30.7976 2.31202C30.9416 1.59202 31.0616 0.920021 31.1576 0.296021H36.0896L36.3416 0.692022Z" fill="black"/>
<path d="M51.6343 23.696V8.18002C51.6343 5.58802 51.3103 5.19202 48.6823 5.19202H39.9343C38.6023 5.19202 38.0623 5.26402 38.0623 6.99202V8.57602C38.0623 9.83602 38.5303 10.016 39.2143 10.016C39.5383 10.016 39.9343 9.98002 40.3303 9.98002H44.6143L47.4583 9.62002L46.7743 12.032V23.696C46.7743 25.028 46.9903 26 48.3223 26C48.5743 26 49.2583 26.036 49.8703 26.036C50.2663 26.036 50.5903 26.036 50.7343 25.964C51.5263 25.568 51.6343 24.632 51.6343 23.696Z" fill="black"/>
<path d="M70.2876 8.18002C70.2876 5.58802 69.9276 5.19202 67.2996 5.19202H56.8596C55.5276 5.19202 55.0236 5.26402 55.0236 6.99202V8.57602C55.0236 9.83602 55.4916 10.016 56.1756 10.016C56.4996 10.016 56.8956 9.98002 57.2916 9.98002H62.8716L63.5916 9.65602L62.9796 12.032V23.696C62.9796 25.028 63.1596 26 64.4916 26H66.4356C67.8036 26 67.8036 24.632 67.8036 23.696V10.412L70.2876 9.47602V8.18002Z" fill="black"/>
<path d="M76.6253 9.98002L74.1053 11.348L74.1773 19.736C74.2133 24.164 75.2933 26 78.5333 26H83.3573C88.3253 26 88.9373 21.752 89.4053 16.496L90.1253 8.18002C90.1613 7.89202 90.1613 7.60402 90.1613 7.38802C90.1613 5.66002 89.4413 5.19202 87.1373 5.19202H74.8613C73.4933 5.19202 72.9893 5.26402 72.9893 6.99202V8.57602C72.9893 9.65602 73.5653 9.98002 74.3213 9.98002H76.6253ZM78.8933 9.98002H83.1053L85.6613 9.62002L85.2653 12.032L84.8333 16.964C84.5813 19.988 84.4013 21.428 82.8533 21.428H80.3333C79.0373 21.428 78.8933 21.212 78.8933 20.06V9.98002Z" fill="black"/>
<path d="M94 6C94 5.44772 94.4477 5 95 5H110C110.552 5 111 5.44772 111 6V9C111 9.55228 110.552 10 110 10H95C94.4477 10 94 9.55228 94 9V6Z" fill="#3B82F6"/>
<path d="M94 14C94 13.4477 94.4477 13 95 13H115C115.552 13 116 13.4477 116 14V17C116 17.5523 115.552 18 115 18H95C94.4477 18 94 17.5523 94 17V14Z" fill="#F6AB3B"/>
<path d="M94 22C94 21.4477 94.4477 21 95 21H104C104.552 21 105 21.4477 105 22V25C105 25.5523 104.552 26 104 26H95C94.4477 26 94 25.5523 94 25V22Z" fill="#F63B7E"/>
</svg>
